<svg xmlns="http://www.w3.org/2000/svg" xmlns:xlink="http://www.w3.org/1999/xlink" viewBox="0 0 2766.04 2775.19"><defs><style>.cls-1,.cls-17,.cls-2{opacity:0.3;}.cls-1{fill:url(#linear-gradient);}.cls-3{fill:url(#linear-gradient-2);}.cls-4{fill:url(#linear-gradient-3);}.cls-5{fill:url(#linear-gradient-4);}.cls-6{fill:url(#linear-gradient-5);}.cls-7{fill:url(#linear-gradient-6);}.cls-8{fill:url(#linear-gradient-7);}.cls-43,.cls-46,.cls-9{fill:#fff;}.cls-9{opacity:0.56;}.cls-10{fill:url(#linear-gradient-8);}.cls-11{fill:url(#linear-gradient-9);}.cls-12{fill:url(#linear-gradient-10);}.cls-13{fill:url(#linear-gradient-11);}.cls-14{fill:url(#linear-gradient-12);}.cls-15{fill:url(#linear-gradient-13);}.cls-16{fill:url(#linear-gradient-14);}.cls-17{fill:url(#linear-gradient-15);}.cls-18{fill:url(#linear-gradient-16);}.cls-19{fill:url(#linear-gradient-17);}.cls-20{fill:url(#linear-gradient-18);}.cls-21{fill:url(#linear-gradient-19);}.cls-22{fill:url(#linear-gradient-20);}.cls-23{fill:url(#linear-gradient-21);}.cls-24{fill:url(#linear-gradient-22);}.cls-25{fill:url(#linear-gradient-23);}.cls-26{fill:url(#linear-gradient-24);}.cls-27{fill:url(#linear-gradient-25);}.cls-28{fill:url(#linear-gradient-26);}.cls-29{fill:url(#linear-gradient-27);}.cls-30{fill:url(#linear-gradient-28);}.cls-31{fill:url(#linear-gradient-29);}.cls-32{fill:url(#linear-gradient-30);}.cls-33{fill:url(#linear-gradient-31);}.cls-34{fill:url(#linear-gradient-32);}.cls-35{fill:url(#linear-gradient-33);}.cls-36{fill:url(#linear-gradient-34);}.cls-37{fill:url(#linear-gradient-35);}.cls-38{fill:url(#linear-gradient-36);}.cls-39{fill:url(#linear-gradient-37);}.cls-40{fill:url(#linear-gradient-38);}.cls-41{fill:url(#linear-gradient-39);}.cls-42{fill:url(#linear-gradient-40);}.cls-44{fill:url(#linear-gradient-41);}.cls-45{fill:url(#linear-gradient-42);}.cls-46{opacity:0.47;}</style><linearGradient id="linear-gradient" x1="815.41" y1="3121.96" x2="-1214.46" y2="931" gradientTransform="matrix(-1, 0, 0, 1, 658, 0)" gradientUnits="userSpaceOnUse"><stop offset="0" stop-color="#b37cff"/><stop offset="1" stop-color="#f895e7"/></linearGradient><linearGradient id="linear-gradient-2" x1="2544.07" y1="-98.98" x2="3124.76" y2="-98.98" gradientTransform="matrix(-0.57, 0.82, 0.82, 0.57, 2041.32, -1926.72)" xlink:href="#linear-gradient"/><linearGradient id="linear-gradient-3" x1="3152.99" y1="-251.95" x2="3186.91" y2="-251.95" gradientTransform="matrix(-0.57, 0.82, 0.82, 0.57, 2041.32, -1926.72)" xlink:href="#linear-gradient"/><linearGradient id="linear-gradient-4" x1="3329.04" y1="7.19" x2="3352.31" y2="7.19" gradientTransform="matrix(-0.57, 0.82, 0.82, 0.57, 2041.32, -1926.72)" xlink:href="#linear-gradient"/><linearGradient id="linear-gradient-5" x1="2759.16" y1="271.93" x2="3357.29" y2="271.93" gradientTransform="matrix(-0.57, 0.82, 0.82, 0.57, 2041.32, -1926.72)" xlink:href="#linear-gradient"/><linearGradient id="linear-gradient-6" x1="2699.54" y1="398.02" x2="2733.02" y2="398.02" gradientTransform="matrix(-0.57, 0.82, 0.82, 0.57, 2041.32, -1926.72)" xlink:href="#linear-gradient"/><linearGradient id="linear-gradient-7" x1="4329.54" y1="680.42" x2="2195.98" y2="-256.26" gradientTransform="matrix(-0.57, 0.82, 0.82, 0.57, 2041.32, -1926.72)" gradientUnits="userSpaceOnUse"><stop offset="0" stop-color="#a737d5"/><stop offset="1" stop-color="#ef497a"/></linearGradient><linearGradient id="linear-gradient-8" x1="2198.65" y1="384.7" x2="2215.2" y2="384.7" gradientTransform="matrix(-0.57, 0.82, 0.82, 0.57, 2041.32, -1926.72)" xlink:href="#linear-gradient"/><linearGradient id="linear-gradient-9" x1="2191.94" y1="198.74" x2="2516.34" y2="198.74" gradientTransform="matrix(-0.57, 0.82, 0.82, 0.57, 2041.32, -1926.72)" xlink:href="#linear-gradient"/><linearGradient id="linear-gradient-10" x1="2336.73" y1="509.72" x2="2706.99" y2="509.72" gradientTransform="matrix(-0.57, 0.82, 0.82, 0.57, 2041.32, -1926.72)" xlink:href="#linear-gradient"/><linearGradient id="linear-gradient-11" x1="2296.03" y1="532.89" x2="2321.35" y2="532.89" gradientTransform="matrix(-0.57, 0.82, 0.82, 0.57, 2041.32, -1926.72)" xlink:href="#linear-gradient"/><linearGradient id="linear-gradient-12" x1="4162.15" y1="1061.14" x2="2028.6" y2="124.46" xlink:href="#linear-gradient-7"/><linearGradient id="linear-gradient-13" x1="-1194.18" y1="288.51" x2="-1220.88" y2="2851.07" gradientTransform="matrix(-1, 0, 0, 1, 658, 0)" gradientUnits="userSpaceOnUse"><stop offset="0" stop-color="#cb236d"/><stop offset="1" stop-color="#4c246d"/></linearGradient><linearGradient id="linear-gradient-14" x1="-1069.95" y1="-105.81" x2="-1356.37" y2="373.63" xlink:href="#linear-gradient-13"/><linearGradient id="linear-gradient-15" x1="-1072.94" y1="-59.91" x2="-1295.62" y2="312.83" xlink:href="#linear-gradient"/><linearGradient id="linear-gradient-16" x1="2054.2" y1="-277.6" x2="2054.2" y2="586.8" gradientTransform="matrix(0.95, 0.13, -0.14, 0.99, -307.8, -73.2)" gradientUnits="userSpaceOnUse"><stop offset="0" stop-color="#fdf53f"/><stop offset="1" stop-color="#d93c65"/></linearGradient><linearGradient id="linear-gradient-17" x1="-1191.89" y1="-43.68" x2="-1249.96" y2="682.82" gradientTransform="matrix(-0.94, -0.15, -0.15, 0.99, 498.81, 45.1)" xlink:href="#linear-gradient-16"/><linearGradient id="linear-gradient-18" x1="-584.04" y1="715.26" x2="-567.06" y2="1488.64" gradientTransform="matrix(-0.95, 0.08, 0.08, 1, 1034.6, -42.11)" xlink:href="#linear-gradient-7"/><linearGradient id="linear-gradient-19" x1="-556.89" y1="1101.83" x2="-613.46" y2="1809.55" gradientTransform="matrix(-0.95, 0.08, 0.08, 1, 1034.6, -42.11)" xlink:href="#linear-gradient"/><linearGradient id="linear-gradient-20" x1="2689.06" y1="341.92" x2="2705.86" y2="1106.9" gradientTransform="matrix(1.05, -0.09, 0.08, 1, -838.73, 121.63)" gradientUnits="userSpaceOnUse"><stop offset="0" stop-color="#53d8ff"/><stop offset="1" stop-color="#3840f7"/></linearGradient><linearGradient id="linear-gradient-21" x1="2715.72" y1="723.02" x2="2659.59" y2="1425.3" xlink:href="#linear-gradient-20"/><linearGradient id="linear-gradient-22" x1="1889.24" y1="315.73" x2="1774.1" y2="846.46" gradientTransform="translate(307.01 -680.53) rotate(22.5)" xlink:href="#linear-gradient-7"/><linearGradient id="linear-gradient-23" x1="1864.84" y1="334.56" x2="1867.41" y2="451.35" gradientTransform="matrix(1, 0, 0, 1, 0, 0)" xlink:href="#linear-gradient-7"/><linearGradient id="linear-gradient-24" x1="1882.05" y1="722.01" x2="1771.14" y2="1233.21" gradientTransform="translate(460.38 -647.53) rotate(22.5)" xlink:href="#linear-gradient-7"/><linearGradient id="linear-gradient-25" x1="1858.55" y1="740.15" x2="1861.02" y2="852.64" gradientTransform="matrix(1, 0, 0, 1, 0, 0)" xlink:href="#linear-gradient-7"/><linearGradient id="linear-gradient-26" x1="1885.33" y1="1078.27" x2="1770.12" y2="1609.32" gradientTransform="translate(1389.17 -965.63) rotate(45)" xlink:href="#linear-gradient-7"/><linearGradient id="linear-gradient-27" x1="1860.92" y1="1097.11" x2="1863.48" y2="1213.97" gradientTransform="translate(596.34 -622.49) rotate(22.5)" xlink:href="#linear-gradient-7"/><linearGradient id="linear-gradient-28" x1="-36.86" y1="1452.91" x2="-756.17" y2="4222.25" xlink:href="#linear-gradient-13"/><linearGradient id="linear-gradient-29" x1="12293.97" y1="1306.11" x2="12901.12" y2="1306.11" gradientTransform="translate(-10945.97 -58.99) rotate(0.54)" gradientUnits="userSpaceOnUse"><stop offset="0" stop-color="#f9b776"/><stop offset="1" stop-color="#f47960"/></linearGradient><linearGradient id="linear-gradient-30" x1="-3263.1" y1="1209.21" x2="-2855.7" y2="2136.14" gradientTransform="matrix(-1, -0.01, -0.01, 1, -1443.2, 32.22)" xlink:href="#linear-gradient-29"/><linearGradient id="linear-gradient-31" x1="12898.21" y1="901.44" x2="13068.2" y2="640.07" xlink:href="#linear-gradient-29"/><linearGradient id="linear-gradient-32" x1="510.8" y1="1595.84" x2="-192.67" y2="4304.22" xlink:href="#linear-gradient-13"/><linearGradient id="linear-gradient-33" x1="10965.41" y1="2171.82" x2="11733.74" y2="2171.82" xlink:href="#linear-gradient-29"/><linearGradient id="linear-gradient-34" x1="11555.41" y1="1350.45" x2="11859.19" y2="1350.45" xlink:href="#linear-gradient-29"/><linearGradient id="linear-gradient-35" x1="3348.91" y1="6193.83" x2="3235.39" y2="5819.42" gradientTransform="matrix(0.75, -0.66, 0.66, 0.75, -5625.4, -1241.8)" xlink:href="#linear-gradient-29"/><linearGradient id="linear-gradient-36" x1="3246.5" y1="5541.47" x2="3341.46" y2="6083.08" gradientTransform="matrix(0.75, -0.66, 0.66, 0.75, -5625.4, -1241.8)" gradientUnits="userSpaceOnUse"><stop offset="0" stop-color="#2b3582"/><stop offset="1" stop-color="#150e42"/></linearGradient><linearGradient id="linear-gradient-37" x1="3232.87" y1="6192.08" x2="3130.73" y2="5855.22" gradientTransform="matrix(0.75, -0.66, 0.66, 0.75, -5625.4, -1241.8)" xlink:href="#linear-gradient-29"/><linearGradient id="linear-gradient-38" x1="11646.52" y1="1728.81" x2="12070.48" y2="3495.31" gradientTransform="translate(-10673.36)" xlink:href="#linear-gradient-36"/><linearGradient id="linear-gradient-39" x1="11356.01" y1="2196.14" x2="11596.21" y2="2196.14" gradientTransform="translate(-10673.36)" xlink:href="#linear-gradient-29"/><linearGradient id="linear-gradient-40" x1="-486.02" y1="1917.22" x2="-422.66" y2="2181.22" gradientTransform="matrix(-1, 0, 0, 1, 658, 0)" xlink:href="#linear-gradient-20"/><linearGradient id="linear-gradient-41" x1="1575.49" y1="2842.63" x2="2360.13" y2="1914.14" gradientTransform="matrix(1, 0, 0, 1, 0, 0)" xlink:href="#linear-gradient-7"/><linearGradient id="linear-gradient-42" x1="2195.86" y1="2770.3" x2="2439.97" y2="1737.19" gradientTransform="matrix(1, 0, 0, 1, 0, 0)" xlink:href="#linear-gradient-7"/></defs><g id="Layer_2" data-name="Layer 2"><g id="Illustration"><path class="cls-1" d="M123.09,1872.55C402.55,2523.4,1140.23,2803,1718.21,2755.29c157.81-13,475.34-39.2,723.26-272.81,476.12-448.63,402.8-1386.4-53-1938.5-58.7-71.1-465-547.46-1098.1-541.08C826.85,7.56,501.5,268.46,461.94,301,412,342,301.74,439.6,202.39,594.39-31,958.1-51.54,1465.84,123.09,1872.55Z"/><g class="cls-2"><path class="cls-3" d="M677.62,240.61a10.18,10.18,0,0,1-14.36,1c-8.24-7.18-16.91-14.11-25.77-20.59a10.19,10.19,0,0,1-2.32-14.07l.11-.16a10.18,10.18,0,0,1,14.23-2.2c9.33,6.82,18.46,14.11,27.13,21.67a10.19,10.19,0,0,1,1.64,13.52A8.69,8.69,0,0,1,677.62,240.61Zm-85.44-48.2c-9.65-5.21-19.63-10.06-29.65-14.41a10.18,10.18,0,1,1,8.12-18.68c10.54,4.58,21,9.69,31.2,15.17A10.18,10.18,0,0,1,606,188.28a10.53,10.53,0,0,1-.64,1A10.17,10.17,0,0,1,592.18,192.41Zm-80.13-32.28c-10.55-2.92-21.35-5.42-32.12-7.43a10.18,10.18,0,0,1,3.74-20c11.33,2.12,22.71,4.75,33.82,7.83a10.18,10.18,0,0,1-5.44,19.62Zm-85.34-13.55c-10.95-.49-22-.51-33-.07a10.18,10.18,0,1,1-.83-20.34c11.52-.47,23.2-.45,34.72.07a10.18,10.18,0,0,1-.91,20.34Zm-86.23,5.8c-10.76,2-21.59,4.38-32.18,7.24A10.18,10.18,0,1,1,303,140c11.14-3,22.54-5.57,33.86-7.62a10.18,10.18,0,1,1,3.62,20Zm-82.8,24.74c-10.08,4.28-20.09,9-29.77,14.18a10.18,10.18,0,0,1-9.53-18c10.19-5.39,20.73-10.41,31.34-14.92A10.18,10.18,0,0,1,262,173.61,10.07,10.07,0,0,1,257.68,177.12ZM17.49,469.06a10.18,10.18,0,0,1-8.13-11.89c2.14-11.32,4.79-22.7,7.9-33.82a10.18,10.18,0,0,1,19.61,5.48c-2.95,10.56-5.47,21.36-7.49,32.11a10.17,10.17,0,0,1-11.89,8.12Zm165-249.49C173.6,226,164.91,232.86,156.63,240a10.18,10.18,0,1,1-13.31-15.41c8.72-7.53,17.88-14.78,27.22-21.53a10.18,10.18,0,0,1,14.3,14.1A10.37,10.37,0,0,1,182.47,219.57Zm-141,164.05a10.18,10.18,0,0,1-5.25-13.4c4.61-10.55,9.74-21.05,15.23-31.19a10.18,10.18,0,1,1,17.9,9.7c-5.22,9.64-10.09,19.61-14.47,29.64a10.19,10.19,0,0,1-13.41,5.25Zm77.22-105.87C111.44,286,104.5,294.63,98,303.46a10.18,10.18,0,0,1-16.54-11.87l.13-.18c6.83-9.3,14.14-18.41,21.72-27.07a10.18,10.18,0,0,1,16,12.55C119.11,277.18,118.89,277.47,118.65,277.75Z"/><path class="cls-4" d="M20.9,536.07a10.12,10.12,0,0,0,1.84-5.79c0-5.25.16-10.59.4-15.86a10.18,10.18,0,1,0-20.34-.93c-.25,5.55-.39,11.16-.42,16.69a10.18,10.18,0,0,0,18.52,5.89Z"/></g><g class="cls-2"><path class="cls-5" d="M140.71,822.4a10.19,10.19,0,0,0-1.24-13.14C135.7,805.6,132,801.8,128.32,798a10.18,10.18,0,1,0-14.78,14c3.82,4,7.77,8,11.73,11.89a10.19,10.19,0,0,0,14.4-.21A10.29,10.29,0,0,0,140.71,822.4Z"/><path class="cls-6" d="M729.61,782.75a10.18,10.18,0,1,1-16.06-12.51c6.57-8.45,12.89-17.31,18.85-26.43A10.19,10.19,0,1,1,749.45,755q-3.87,5.92-7.91,11.67C737.69,772.1,733.68,777.52,729.61,782.75ZM763,711.39a10.18,10.18,0,0,1-4.83-13.56c4.63-9.75,8.9-19.8,12.68-29.88a10.18,10.18,0,1,1,19.06,7.16c-4,10.61-8.47,21.19-13.35,31.45A10.15,10.15,0,0,1,763,711.39Zm-70.4,112.7c-8.12,7.9-16.68,15.56-25.46,22.77a10.18,10.18,0,1,1-12.93-15.73c8.34-6.85,16.47-14.13,24.18-21.63a10.18,10.18,0,0,1,15.44,13.14A11.12,11.12,0,0,1,692.62,824.09Zm101-194.46A10.18,10.18,0,0,1,786,617.46c2.37-10.51,4.32-21.25,5.8-31.92a10.18,10.18,0,0,1,20.17,2.78c-1.56,11.24-3.61,22.55-6.11,33.62a10.15,10.15,0,0,1-12.17,7.69ZM622,879c-9.65,5.92-19.68,11.51-29.83,16.61A10.18,10.18,0,1,1,583,877.45c9.64-4.86,19.17-10.16,28.33-15.79A10.19,10.19,0,0,1,625,876.2,10.3,10.3,0,0,1,622,879Zm-81,38.11c-10.74,3.68-21.75,6.94-32.74,9.71a10.18,10.18,0,1,1-5-19.74c10.44-2.63,20.91-5.74,31.11-9.23a10.18,10.18,0,1,1,6.6,19.26ZM453.71,936.7c-11.28,1.25-22.75,2-34.07,2.35a10.18,10.18,0,0,1-.55-20.36c10.76-.29,21.65-1,32.38-2.23a10.18,10.18,0,0,1,2.24,20.24Zm-89.52,0c-11.29-1.25-22.65-3-33.78-5.18a10.18,10.18,0,0,1,3.94-20c10.56,2.08,21.35,3.74,32.07,4.92a10.17,10.17,0,0,1,9,11.23,10,10,0,0,1-1.78,4.73A10.18,10.18,0,0,1,364.19,936.75ZM276.8,917.11c-10.71-3.69-21.4-7.89-31.79-12.48A10.18,10.18,0,1,1,253.25,886c9.86,4.36,20,8.35,30.19,11.86a10.17,10.17,0,0,1,6.3,12.94,10.46,10.46,0,0,1-1.29,2.54A10.17,10.17,0,0,1,276.8,917.11Zm-80.87-38.3c-7.11-4.37-14.17-9-21-13.81q-3.7-2.61-7.33-5.27a10.07,10.07,0,0,1-2.16-14.23,10.18,10.18,0,0,1,14.23-2.17q3.45,2.53,7,5c6.48,4.55,13.19,9,19.95,13.13a10.18,10.18,0,0,1,3.34,14c-.11.18-.23.36-.35.53A10.18,10.18,0,0,1,195.93,878.81Z"/><path class="cls-7" d="M813.89,538.55a10.19,10.19,0,0,0,1.85-5.85c0-5.51-.12-11.13-.35-16.69a10.18,10.18,0,0,0-20.34.84c.22,5.28.33,10.62.33,15.85a10.18,10.18,0,0,0,18.51,5.85Z"/></g><path class="cls-8" d="M690.59,415a4.76,4.76,0,0,0-4.3-3.47l-57.82-3.37A252.14,252.14,0,0,0,578,343.93L588.3,287a4.76,4.76,0,0,0-2.35-5l-60.58-34a4.74,4.74,0,0,0-5.49.59L476.65,287a252.12,252.12,0,0,0-81.16-9.66l-33-47.61a4.78,4.78,0,0,0-5.2-1.87l-66.88,18.79A4.76,4.76,0,0,0,287,251l-3.37,57.82a252,252,0,0,0-64.26,50.5L162.4,349a4.76,4.76,0,0,0-5,2.35l-34,60.58a4.78,4.78,0,0,0,.59,5.49l38.48,43.23a252.4,252.4,0,0,0-9.67,81.16l-47.6,33a4.76,4.76,0,0,0-1.87,5.2l18.78,66.88a4.77,4.77,0,0,0,4.3,3.46l57.82,3.37a252.23,252.23,0,0,0,50.51,64.26l-10.34,56.94a4.76,4.76,0,0,0,2.36,5l60.57,34a4.76,4.76,0,0,0,5.49-.6l43.24-38.47a252.37,252.37,0,0,0,81.16,9.67l33,47.6a4.75,4.75,0,0,0,5.2,1.87l66.87-18.78a4.76,4.76,0,0,0,3.47-4.31l3.37-57.81a252.36,252.36,0,0,0,64.25-50.51l56.95,10.33a4.76,4.76,0,0,0,5-2.35l34-60.57a4.74,4.74,0,0,0-.59-5.49l-38.47-43.24a252.4,252.4,0,0,0,9.66-81.16l47.61-33a4.77,4.77,0,0,0,1.87-5.2Z"/><path class="cls-9" d="M457,579a69.77,69.77,0,1,1,6.5-7.94A69.91,69.91,0,0,1,457,579ZM352.83,532.35a53.53,53.53,0,1,0,14.67-38.26,55.14,55.14,0,0,0-5,6.15A53.16,53.16,0,0,0,352.83,532.35Z"/><path class="cls-9" d="M545.2,630.19a173.89,173.89,0,0,0,9.4-14.93h0q1.38-2.43,2.67-4.92A172.27,172.27,0,0,0,568,585l.12-.36.33-1c.21-.65.41-1.31.62-2a4.07,4.07,0,0,0-7.78-2.4A163.76,163.76,0,0,1,413.78,694.47a162.52,162.52,0,0,1-88.95-20.65,165.89,165.89,0,0,1-14.24-9,163.59,163.59,0,0,1-48.3-213.7c44.17-78.66,144-106.69,222.67-62.54A165.39,165.39,0,0,1,499,397.46a163.19,163.19,0,0,1,47.82,52.47,4.07,4.07,0,0,0,7.07-4.05,171.71,171.71,0,0,0-65-64.37c-82.56-46.35-187.43-16.87-233.76,65.65a171.73,171.73,0,0,0,50.7,224.35,175.89,175.89,0,0,0,14.95,9.41A171.71,171.71,0,0,0,545.2,630.19Z"/><g class="cls-2"><path class="cls-10" d="M1097.54,109.76a6.29,6.29,0,0,0-.23-7.53c-3.33-4.18-6.82-8.31-10.4-12.28a6.29,6.29,0,0,0-9.35,8.41c3.41,3.79,6.74,7.72,9.92,11.71a6.28,6.28,0,0,0,10.06-.31Z"/><path class="cls-11" d="M1063.66,75.37a6.3,6.3,0,0,1-8.87.63A262.7,262.7,0,0,0,1034,59.75q-2.26-1.59-4.59-3.15a6.28,6.28,0,0,1-1.71-8.72,6.5,6.5,0,0,1,8.73-1.71q2.43,1.62,4.8,3.29a271.45,271.45,0,0,1,21.79,17,6.28,6.28,0,0,1,1,8.36Q1063.87,75.12,1063.66,75.37Zm-61.79-34.93a261.3,261.3,0,0,0-29.3-12.67,6.29,6.29,0,0,1,4.27-11.83,271.41,271.41,0,0,1,30.72,13.29,6.28,6.28,0,0,1,2.76,8.45,7.68,7.68,0,0,1-.47.78A6.28,6.28,0,0,1,1001.87,40.44Zm-60-21.63a256,256,0,0,0-31.52-5.08,6.29,6.29,0,0,1,1.23-12.52,273.22,273.22,0,0,1,33.06,5.33,6.29,6.29,0,0,1-2.77,12.27Zm-63.43-6.24a260.07,260.07,0,0,0-31.81,2.79A6.29,6.29,0,0,1,844.8,2.92,273.36,273.36,0,0,1,878.15,0a6.29,6.29,0,1,1,.33,12.57Zm-63,9.44a263.53,263.53,0,0,0-30.18,10.42,6.29,6.29,0,1,1-4.82-11.61A276.5,276.5,0,0,1,812.06,9.89a6.29,6.29,0,0,1,6.83,9.68A6.21,6.21,0,0,1,815.44,22ZM756.6,46.47a256.08,256.08,0,0,0-26.7,17.45,6.29,6.29,0,1,1-7.52-10.08,271.49,271.49,0,0,1,28-18.31,6.29,6.29,0,0,1,6.22,10.94ZM705.55,84.55a258.91,258.91,0,0,0-21.61,23.5,6.29,6.29,0,0,1-9.77-7.94,274.25,274.25,0,0,1,22.67-24.63,6.29,6.29,0,0,1,9.5,8.15A5.74,5.74,0,0,1,705.55,84.55Zm-63.79,80.57a6.28,6.28,0,0,1-3-8.35,275,275,0,0,1,13.7-25.66c.75-1.26,1.53-2.51,2.3-3.76A6.29,6.29,0,0,1,665.38,134c-.74,1.17-1.46,2.35-2.18,3.55a259.91,259.91,0,0,0-13.08,24.5,6.51,6.51,0,0,1-.56,1A6.28,6.28,0,0,1,641.76,165.12Z"/></g><g class="cls-2"><path class="cls-12" d="M1104.89,430.75A274.14,274.14,0,0,1,1084,456.22a6.29,6.29,0,0,1-9.23-8.54,260.83,260.83,0,0,0,19.88-24.3,6.29,6.29,0,0,1,10.25,7.3Zm9.1-25.36a6.28,6.28,0,0,1-2.46-8.54,263.1,263.1,0,0,0,13.54-28.36,6.29,6.29,0,1,1,11.65,4.73,272.25,272.25,0,0,1-14.19,29.71,4.74,4.74,0,0,1-.36.58A6.28,6.28,0,0,1,1114,405.39ZM1060.23,479a273.58,273.58,0,0,1-26.39,19.69,6.29,6.29,0,0,1-6.9-10.52,260.74,260.74,0,0,0,25.18-18.77,6.28,6.28,0,0,1,9.2,8.41A6.09,6.09,0,0,1,1060.23,479Zm79.28-132.55a6.29,6.29,0,0,1-4.44-7.71,258.16,258.16,0,0,0,6.29-30.77,6.29,6.29,0,1,1,12.45,1.76,269.22,269.22,0,0,1-6.6,32.28,6.12,6.12,0,0,1-.93,2A6.28,6.28,0,0,1,1139.51,346.43ZM1005.26,515a274.6,274.6,0,0,1-30.35,12.76,6.29,6.29,0,1,1-4.16-11.87,258.46,258.46,0,0,0,28.94-12.17,6.29,6.29,0,0,1,7.93,9.26A6.2,6.2,0,0,1,1005.26,515Zm-62,21.77a276.08,276.08,0,0,1-32.53,5.13,6.29,6.29,0,1,1-1.2-12.52,263.75,263.75,0,0,0,31-4.89,6.29,6.29,0,1,1,2.7,12.28ZM877.8,543A270.6,270.6,0,0,1,845,540.21a6.29,6.29,0,1,1,1.84-12.44,257.64,257.64,0,0,0,31.29,2.7A6.29,6.29,0,1,1,877.8,543Z"/><path class="cls-13" d="M1155.3,280.08a6.25,6.25,0,0,0,1.14-3.5c.1-5.39,0-10.79-.19-16.08a6.29,6.29,0,0,0-12.56.52c.21,5,.27,10.2.18,15.34a6.29,6.29,0,0,0,11.43,3.72Z"/></g><path class="cls-14" d="M1073.27,192.9a3.2,3.2,0,0,0-2.89-2.32l-38.68-2.25a168.87,168.87,0,0,0-33.8-43l6.91-38.11a3.17,3.17,0,0,0-1.57-3.34L962.71,81.12a3.2,3.2,0,0,0-3.68.4L930.1,107.26a168.67,168.67,0,0,0-54.31-6.46L853.72,68.94a3.18,3.18,0,0,0-3.47-1.25L805.5,80.26a3.18,3.18,0,0,0-2.32,2.88l-2.26,38.69a168.78,168.78,0,0,0-43,33.79l-38.1-6.91a3.18,3.18,0,0,0-3.34,1.57l-22.76,40.54a3.16,3.16,0,0,0,.4,3.67l25.74,28.93a169,169,0,0,0-6.47,54.31L681.54,299.8a3.17,3.17,0,0,0-1.25,3.48L692.86,348a3.17,3.17,0,0,0,2.88,2.32l38.68,2.25a168.87,168.87,0,0,0,33.8,43l-6.91,38.1a3.19,3.19,0,0,0,1.57,3.35l40.53,22.76a3.2,3.2,0,0,0,3.68-.4L836,433.66a168.68,168.68,0,0,0,54.31,6.47L912.4,472a3.19,3.19,0,0,0,3.47,1.25l44.76-12.57a3.2,3.2,0,0,0,2.31-2.88l2.26-38.69a168.87,168.87,0,0,0,43-33.8l38.1,6.92a3.19,3.19,0,0,0,3.35-1.58l22.75-40.53a3.16,3.16,0,0,0-.4-3.67l-25.74-28.94a168.9,168.9,0,0,0,6.47-54.3l31.85-22.07a3.18,3.18,0,0,0,1.25-3.48Z"/><path class="cls-9" d="M917.58,303.19a47.51,47.51,0,1,1,4.46-5.46A49,49,0,0,1,917.58,303.19ZM859,295.85a35,35,0,0,0,49.47-1.31h0a35,35,0,0,0-50.78-48.15,35.68,35.68,0,0,0-3.25,4A35,35,0,0,0,859,295.85Z"/><path class="cls-9" d="M979,338.83q3.42-4.89,6.42-10.19A120.33,120.33,0,0,0,995,306.51l.32-1a6.29,6.29,0,0,0-12-3.7,106.38,106.38,0,0,1-8.9,20.71h0c-.2.36-.41.72-.62,1.08a104.87,104.87,0,0,1-36.08,37.23,106.35,106.35,0,0,1-26.07,11.53l-.23.06-.69.2A105.14,105.14,0,0,1,830.26,363a108.48,108.48,0,0,1-9.22-5.8A105.88,105.88,0,0,1,933.92,178.33,105.81,105.81,0,0,1,974,218a6.18,6.18,0,0,0,1.84,2,6.29,6.29,0,0,0,9.08-8.27A118.46,118.46,0,1,0,813.79,367.44q5,3.48,10.31,6.5A118.63,118.63,0,0,0,979,338.83Z"/><path class="cls-15" d="M1929.18,209.58V2709.83c0,16.51-6.69,31.43-18.06,40.63-8.63,7-19.53,11.45-31.54,11l-27.38-1c-27.68-1-52.64-26.38-52.64-55.31V213.81Z"/><path class="cls-16" d="M1981.3,119.88a124.37,124.37,0,0,1-53.73,102.18,116.82,116.82,0,0,1-62.88,20.77,111.75,111.75,0,0,1-33-3.9,109.58,109.58,0,0,1-22.47-8.9c-1.79-1-3.58-1.95-5.33-3-33-19.89-55-56.64-55-99.35,0-65.57,51.77-120.59,115.81-123C1929,2.32,1981.3,53.86,1981.3,119.88Z"/><path class="cls-17" d="M1927.91,115.55A96.68,96.68,0,0,1,1886.14,195a90.75,90.75,0,0,1-48.89,16.15,86.68,86.68,0,0,1-25.68-3,85.13,85.13,0,0,1-17.47-6.92c-1.39-.75-2.78-1.51-4.14-2.35-25.68-15.47-42.75-44-42.75-77.25,0-51,40.25-93.75,90-95.59C1887.23,24.15,1927.91,64.23,1927.91,115.55Z"/><path class="cls-18" d="M992.25,298.93l10,5.14,188.57-115.61L2114.23,325l129.17,14.78-7.63,24.11c-1,2.59-148,109.68-148,109.68l114.38,150.11-5.5,15.44a4,4,0,0,1-4.28,2.66l-118.75-18.39-924-143.14a12,12,0,0,1-6.81-3.57L994.25,321.09a10.4,10.4,0,0,1-2.81-7.76Z"/><path class="cls-19" d="M1201.19,178.3,2243.4,339.75a1.15,1.15,0,0,1,.44,2.05L2097,449.23a4.79,4.79,0,0,0-1.2,6.38l105,165.91a1.15,1.15,0,0,1-1.09,1.76L1156.86,461.73a14.13,14.13,0,0,1-7.87-4.05L993.57,300.26a1.48,1.48,0,0,1,.29-2.29l197.93-117.81A14.08,14.08,0,0,1,1201.19,178.3Z"/><path class="cls-20" d="M1082.91,1273.54l10.58,2.59L1245,1123.39l903-82.72,120.52-15.05a4,4,0,0,1,4.54,4.23l-1,19.71c-.38,2.69-114.91,137.83-114.91,137.83l142.39,115.87-1.65,15.88a3.85,3.85,0,0,1-3.43,3.5l-116.31,9.84-905,76.57a11.55,11.55,0,0,1-7.25-1.82l-175.93-113.16a10.13,10.13,0,0,1-4.43-6.7Z"/><path class="cls-21" d="M1252.47,1111.39l1017.78-86.12a2.35,2.35,0,0,1,2,3.86l-112.07,133.13a4.74,4.74,0,0,0,.33,6.33l137.23,133a1.09,1.09,0,0,1-.66,1.87l-1021.45,86.42a13.68,13.68,0,0,1-8.36-2L1084.46,1274.5a1.43,1.43,0,0,1-.25-2.24l159.82-157A13.74,13.74,0,0,1,1252.47,1111.39Z"/><rect class="cls-9" x="1283.67" y="1164.09" width="576.66" height="33.84" rx="3.83" transform="translate(-87.25 126.09) rotate(-4.47)"/><rect class="cls-9" x="1288.67" y="1255.19" width="572.11" height="32.09" rx="3.83" transform="translate(-94.28 126.58) rotate(-4.47)"/><path class="cls-22" d="M2725.88,763.43l-11,4.37-190.1-123.07-989.34,75.91-137.76,7.87,5.62,21.55c.88,2.57,147.81,115.65,147.81,115.65l-133.6,138,4.54,15.24a4.11,4.11,0,0,0,4.31,2.83l127.3-10.58L2544.13,929a13.46,13.46,0,0,0,7.5-3l170.29-141.22a9.82,9.82,0,0,0,3.62-7.32Z"/><path class="cls-23" d="M2514.62,634.29,1399.77,726.9a2,2,0,0,0-1.06,3.61l144.71,111.17a4.37,4.37,0,0,1,.73,6.25l-125,153.78a1.12,1.12,0,0,0,1,1.82L2538,910.68a16.06,16.06,0,0,0,8.68-3.44l177.68-142.6a1.37,1.37,0,0,0-.13-2.23L2524.42,636.66A16,16,0,0,0,2514.62,634.29Z"/><rect class="cls-9" x="1939" y="729.65" width="563.41" height="34.9" rx="3.83" transform="translate(-51.47 175.33) rotate(-4.47)"/><rect class="cls-9" x="1944.28" y="823.57" width="558.97" height="33.09" rx="3.83" transform="translate(-58.71 175.85) rotate(-4.47)"/><circle class="cls-24" cx="1864.13" cy="431.45" r="39.58" transform="translate(-23.21 746.22) rotate(-22.5)"/><circle class="cls-25" cx="1866.83" cy="425.15" r="24.29"/><circle class="cls-26" cx="1857.86" cy="833.47" r="38.12" transform="translate(-177.53 774.42) rotate(-22.5)"/><circle class="cls-27" cx="1860.46" cy="827.41" r="23.39"/><circle class="cls-28" cx="1860.21" cy="1194.06" r="39.6" transform="translate(-299.48 1665.1) rotate(-45)"/><circle class="cls-29" cx="1862.91" cy="1187.76" r="24.3" transform="translate(-312.73 803.32) rotate(-22.5)"/><rect class="cls-9" x="1234.14" y="296.82" width="520.94" height="32.27" rx="3.83" transform="translate(67.04 -229.13) rotate(8.97)"/><rect class="cls-9" x="1218.96" y="381.96" width="516.84" height="30.6" rx="3.83" transform="translate(79.97 -225.41) rotate(8.97)"/><path class="cls-30" d="M1014.18,1496.24c-313.87-8.18-661.07,76.13-661.07,76.13-82.66,456.13-46.3,972.07-32.22,1128.32A65.33,65.33,0,0,0,374.31,2759c162.19,29.81,333.24,11.72,419.28-1.37a81.43,81.43,0,0,0,67.35-63.48c56.86-264.66,219.29-848.54,219.29-848.54,153.56-17.57,280.34-60.62,384.94-118.13-78.49-92.75-114.79-210.18-130.38-279.53C1223.47,1481.41,1111,1498.77,1014.18,1496.24Z"/><path class="cls-31" d="M1945.85,1042.71c-30.49-37.54-59.11-35.92-59.11-35.92-48.06,194.7-302.36,366.23-551.95,441.19,15.59,69.35,51.89,186.78,130.38,279.53C1880.38,1499.25,1945.85,1042.71,1945.85,1042.71Z"/><path class="cls-32" d="M1938.27,1052.11c3.13,10.28-34.38,25.55-56-16.61-.57-20.12-12-106.38.19-122.64,64.83-86.63,189.93-194.81,189.93-194.81,20.77,20.89,3.31,41.05,3.31,41.05l-60.79,62.12c12.37,22.87,27.55,42.22,34.48,69.8,5.25,20.89,1.7,43.13-9,62s-25.4,43.54-39.21,62.77C1975.05,1052.18,1938.27,1052.11,1938.27,1052.11Z"/><path class="cls-33" d="M1988.21,861.65l-55.29,46-17.66,46.13,48.38,54.71S1981,916.77,1993.37,897,1999.53,867.57,1988.21,861.65Z"/><path class="cls-34" d="M470.61,1877.48l-117.5-305.11S58,1768.8,7.36,2020.94c55.36,4.61,156,20,254.25,70.75C284.43,1972.62,470.61,1877.48,470.61,1877.48Z"/><path class="cls-35" d="M724.12,2166s-331,182.91-440.55,23c-22.74-33.21-27.94-66-22-97.24-98.21-50.77-198.89-66.14-254.25-70.75C-7.9,2097-1,2178,43,2260.29c191.18,357.79,723.94-12.76,723.94-12.76Z"/><path class="cls-36" d="M698.64,1238.36,596,1526.26a10.41,10.41,0,0,0,4.63,12.58c27.08,15.31,124.76,59.76,243.69-14.06a49,49,0,0,0,22.9-34.79L902,1240.3Z"/><path class="cls-37" d="M918.52,972.94s107.72,207.51,92.86,290.78-150.73,76-268.79,7.11l-80.82-223.72Z"/><path class="cls-38" d="M748.89,1161.4a8.51,8.51,0,0,0,3.83-12.42c-8.66-13.51-24.87-41-29.9-65.08,0,0-19.6-12.81,50.47-28.88s174.55-41,197-100.33c21.91-57.81-32.82-204.23-123.48-88.84a8.51,8.51,0,0,1-13.49,0c-14.49-19.25-52.71-59.27-106.52-35.74-50.36,22-56.36,58.71-55.85,77.24a8.45,8.45,0,0,1-10.1,8.56c-25.31-5.07-86.11-9.81-115.1,52.33-23.88,51.18-8.95,80.43,4.76,94.79a8.48,8.48,0,0,1-3.77,14c-16.71,5-38.36,18.87-36.58,57.93,2.46,54,62.85,49.81,80.05,47.52a8.51,8.51,0,0,1,7.53,2.74c14.57,16.44,80.28,86.29,152,95.31a8.58,8.58,0,0,0,9.12-11.25l-30.23-90.65a8.56,8.56,0,0,1,4.72-10.56Z"/><path class="cls-39" d="M761.26,1174.35s-77.58-54.33-83.72-9.26,69.7,66,107.52,49.56Z"/><path class="cls-40" d="M656.48,2455l180.3-629.65a18.35,18.35,0,0,1,15.53-13.22c32.66-3.81,127.32-14.52,236.61-23.76,131.65-11.14,284.53-20.16,375.88-12.48a18.42,18.42,0,0,1,15.06,26.51c-51.95,105.1-265.64,532.63-372.65,672.68a18.46,18.46,0,0,1-14.86,7.3L674,2478.51A18.42,18.42,0,0,1,656.48,2455Z"/><path class="cls-41" d="M700,2302.89s-25.12-103.27-15-139.91,29.76-83.75,95.18-73.28,142.61,38,142.61,38-3.89,47.72-53.62,32.33l30.84,23.86s-4.41,38.21-46.42,17.79l28.69,31.65s-18,31.38-49,11.25S787.68,2315.33,700,2302.89Z"/><path class="cls-42" d="M1076.9,1976.35a52.93,52.93,0,1,0,52.93-52.92A52.93,52.93,0,0,0,1076.9,1976.35Z"/><path class="cls-43" d="M857.18,2011.24l36.71-124.53a42.68,42.68,0,0,1,32.08-30c115.06-24,430-29.1,433.14-29.15l-.21-14.07c-13,.2-319.44,5.17-435.8,29.45a56.74,56.74,0,0,0-42.71,39.75l-36.71,124.53Z"/><path class="cls-44" d="M1915.5,2757.61a13.89,13.89,0,0,1-9.14-5.8c-31.27-45.09-257.89-397.38,68.46-702.33,309.8-289.5,447.86-346.56,471.58-521.72,2.77-20.45,30.67-24.49,39.21-5.7,63.8,140.45,159.77,466.51-198.75,667-395.48,221.2-371.87,478.31-355.44,551.68a13.94,13.94,0,0,1-15.92,16.84Z"/><path class="cls-45" d="M1963.41,2765.69a20.08,20.08,0,0,1-16.65-17.36c-7.34-60.24-22.93-284.93,144-339,183.73-59.57,325,114.29,462.72-13.85,7.25-6.74,18.87-.29,16.88,9.4-14.1,68.79-72.15,227.3-308.69,252-253.18,26.44-282.47,54.45-278.53,90.49a16.91,16.91,0,0,1-19.71,18.37Z"/><path class="cls-46" d="M2429.9,1706.05a258.81,258.81,0,0,1-14.1,36.22c-5.49,11.71-11.54,23.14-18.06,34.32s-13.46,22.11-21,32.63-15.29,20.92-23.6,30.85c-33,40-72.23,74.69-115,104A713.3,713.3,0,0,1,2171.7,1984a604.41,604.41,0,0,0-64.31,40.14A647.79,647.79,0,0,0,1995.18,2126a602.13,602.13,0,0,0-84.39,125.73,518.45,518.45,0,0,0-52.24,295c5.68,50.51,18.86,100.09,36.88,147.79a2.64,2.64,0,0,1-4.91,2c-19.75-47.46-34.08-97.41-41-148.62a522.85,522.85,0,0,1-5-77.31,517.63,517.63,0,0,1,6.81-77.3,536.73,536.73,0,0,1,47.07-147.62c22.63-46.67,51.91-90,85.68-129.22a662.6,662.6,0,0,1,114.38-104.7,618.22,618.22,0,0,1,65.78-41.43l16.78-9.16c5.6-3,11-6.19,16.49-9.41l8.18-4.82,8-5.07,8-5.06,7.87-5.3a615.37,615.37,0,0,0,60.29-46,550.68,550.68,0,0,0,53.91-53.35,520.73,520.73,0,0,0,46.11-60.34c13.78-21.21,26.21-43.68,35.33-67.15l.06-.15a2.41,2.41,0,0,1,4.56,1.57Z"/><path class="cls-46" d="M1955.81,2724.67a30.15,30.15,0,0,0,.33-6.2l0-6.17q.08-6.15.3-12.32.46-12.3,1.44-24.6c1.32-16.37,3.31-32.7,6.1-48.91,5.64-32.36,14.18-64.49,28.36-94.42a208.06,208.06,0,0,1,26.15-42.16,147.51,147.51,0,0,1,37.24-33.08,133,133,0,0,1,46.75-17.46,149.93,149.93,0,0,1,24.91-2.26,183.44,183.44,0,0,1,24.92,1.38c8.3,1,16.31,2.47,24.41,3.83l24.23,4.29q24.21,4.41,48.32,9.25c32.17,6.38,64.19,13.37,96.34,19.29,16.07,2.92,32.19,5.54,48.38,7.16s32.45,2.16,48.46.31a123.79,123.79,0,0,0,45.79-13.93c14.18-7.59,26.71-18.08,37.85-29.84a2.15,2.15,0,0,1,3.15,2.94c-11.23,12.13-24,23.11-38.66,31.18a129.05,129.05,0,0,1-47.49,15.05c-16.57,2-33.23,1.4-49.65-.15s-32.68-4.2-48.85-7.1c-32.32-5.85-64.35-12.75-96.48-19s-64.4-12.33-96.56-17.11a176.84,176.84,0,0,0-24.1-1.51,143.54,143.54,0,0,0-24,2,127.37,127.37,0,0,0-44.9,16.4,142.14,142.14,0,0,0-36.1,31.64,204,204,0,0,0-25.84,41c-14.2,29.24-23,61-28.92,93-2.92,16.06-5,32.27-6.53,48.54q-1.1,12.2-1.68,24.44c-.18,4.08-.33,8.16-.42,12.24l-.09,6.12a23.45,23.45,0,0,0,.44,6.09,1.87,1.87,0,0,1-3.63.93A1.76,1.76,0,0,1,1955.81,2724.67Z"/></g></g></svg>